# File created by Blade
# Date/Time:  Tue Apr 07 20:35:22 2015
#---------------------------------------------------------
:version 1.10
:name HOM
:units
  mass 1.0
  length 1.000000
  angle deg
:documentation
     Acclaim Skeleton File
:root
   axis xyz
   order TX TY TZ RX RY RZ
   position 0.000000 0.000000 0.000000
   orientation 0 0 0
:bonedata
   begin
      id 1
      name Spine_dum
      direction 0.000000 1.000000 0.000000
      length 4.885285
      axis 0.0 0.0 0.0 xyz
   end
   begin
      id 2
      name LeftUpLeg_dum
      direction 1.000000 0.000000 0.000000
      length 2.672193
      axis 0.0 0.0 0.0 xyz
   end
   begin
      id 3
      name RightUpLeg_dum
      direction -1.000000 0.000000 0.000000
      length 2.672193
      axis 0.0 0.0 0.0 xyz
   end
   begin
      id 4
      name Spine
      direction 0.000000 1.000000 0.000000
      length 0.000000
      axis 0.0 0.0 0.0 xyz
      dof rx ry rz
   end
   begin
      id 5
      name Spine_dum1
      direction 0.000000 1.000000 0.000000
      length 16.494159
      axis 0.0 0.0 0.0 xyz
   end
   begin
      id 6
      name Spine_dum2
      direction 0.000000 1.000000 0.000000
      length 10.663448
      axis 0.0 0.0 0.0 xyz
   end
   begin
      id 7
      name Spine_dum3
      direction 0.000000 1.000000 0.000000
      length 10.663448
      axis 0.0 0.0 0.0 xyz
   end
   begin
      id 8
      name Head
      direction 0.000000 1.000000 0.000000
      length 4.527550
      axis 0.0 0.0 0.0 xyz
      dof rx ry rz
   end
   begin
      id 9
      name LeftShoulder
      direction 1.000000 0.000000 0.000000
      length 7.531907
      axis 0.0 0.0 -90.0 xyz
      dof rx ry rz
   end
   begin
      id 10
      name LeftArm
      direction 1.000000 0.000000 0.000000
      length 10.229199
      axis 0.0 0.0 -90.0 xyz
      dof rx ry rz
   end
   begin
      id 11
      name LeftForeArm
      direction 1.000000 0.000000 0.000000
      length 8.673495
      axis 0.0 0.0 -90.0 xyz
      dof ry rz rx
   end
   begin
      id 12
      name LeftHand
      direction 0.000000 0.000000 0.000000
      length 0.000000
      axis 0.0 0.0 -90.0 xyz
      dof rx ry rz
   end
   begin
      id 13
      name LeftHand_dum1
      direction 0.000000 0.000000 0.000000
      length 0.000000
      axis 0.0 0.0 -90.0 xyz
   end
   begin
      id 14
      name LeftHand_dum2
      direction 1.000000 0.000000 0.000000
      length 3.937000
      axis 0.0 0.0 -90.0 xyz
   end
   begin
      id 15
      name LeftHandThumb1
      direction 0.000000 0.000000 1.000000
      length 3.937000
      axis 0.0 0.0 -90.0 xyz
      dof rx rz ry
   end
   begin
      id 16
      name RightShoulder
      direction -1.000000 0.000000 0.000000
      length 7.531907
      axis 0.0 0.0 90.0 xyz
      dof rx ry rz
   end
   begin
      id 17
      name RightArm
      direction -1.000000 0.000000 0.000000
      length 10.229199
      axis 0.0 0.0 90.0 xyz
      dof rx ry rz
   end
   begin
      id 18
      name RightForeArm
      direction -1.000000 0.000000 0.000000
      length 8.673495
      axis 0.0 0.0 90.0 xyz
      dof ry rz rx
   end
   begin
      id 19
      name RightHand
      direction 0.000000 0.000000 0.000000
      length 0.000000
      axis 0.0 0.0 90.0 xyz
      dof rx ry rz
   end
   begin
      id 20
      name RightHand_dum1
      direction 0.000000 0.000000 0.000000
      length 0.000000
      axis 0.0 0.0 90.0 xyz
   end
   begin
      id 21
      name RightHand_dum2
      direction -1.000000 0.000000 0.000000
      length 3.937000
      axis 0.0 0.0 90.0 xyz
   end
   begin
      id 22
      name RightHandThumb1
      direction 0.000000 0.000000 1.000000
      length 3.937000
      axis 0.0 0.0 90.0 xyz
      dof rx rz ry
   end
   begin
      id 23
      name LeftUpLeg
      direction 0.000000 -1.000000 0.000000
      length 16.263388
      axis 0.0 0.0 0.0 xyz
      dof rx ry rz
   end
   begin
      id 24
      name LeftLeg
      direction 0.000000 -1.000000 0.000000
      length 14.328163
      axis 0.0 0.0 0.0 xyz
      dof rx ry rz
   end
   begin
      id 25
      name LeftFoot
      direction 0.000000 -0.258819 0.965926
      length 5.031290
      axis 15.0 0.0 0.0 xyz
      dof rx ry rz
   end
   begin
      id 26
      name LeftToeBase
      direction 0.000000 0.000000 1.000000
      length 2.952750
      axis 0.0 0.0 0.0 xyz
      dof rx ry rz
   end
   begin
      id 27
      name RightUpLeg
      direction 0.000000 -1.000000 0.000000
      length 16.263388
      axis 0.0 0.0 0.0 xyz
      dof rx ry rz
   end
   begin
      id 28
      name RightLeg
      direction 0.000000 -1.000000 0.000000
      length 14.328163
      axis 0.0 0.0 0.0 xyz
      dof rx ry rz
   end
   begin
      id 29
      name RightFoot
      direction 0.000000 -0.258819 0.965926
      length 5.031290
      axis 15.0 0.0 0.0 xyz
      dof rx ry rz
   end
   begin
      id 30
      name RightToeBase
      direction 0.000000 0.000000 1.000000
      length 2.952750
      axis 0.0 0.0 0.0 xyz
      dof rx ry rz
   end
:hierarchy
   begin
      root Spine_dum LeftUpLeg_dum RightUpLeg_dum
      Spine_dum Spine
      LeftUpLeg_dum LeftUpLeg
      RightUpLeg_dum RightUpLeg
      Spine Spine_dum1 Spine_dum2 Spine_dum3
      Spine_dum1 Head
      Spine_dum2 LeftShoulder
      Spine_dum3 RightShoulder
      LeftShoulder LeftArm
      LeftArm LeftForeArm
      LeftForeArm LeftHand
      LeftHand LeftHand_dum1 LeftHand_dum2
      LeftHand_dum1 LeftHandThumb1
      RightShoulder RightArm
      RightArm RightForeArm
      RightForeArm RightHand
      RightHand RightHand_dum1 RightHand_dum2
      RightHand_dum1 RightHandThumb1
      LeftUpLeg LeftLeg
      LeftLeg LeftFoot
      LeftFoot LeftToeBase
      RightUpLeg RightLeg
      RightLeg RightFoot
      RightFoot RightToeBase
   end

# File created by Blade
# Date/Time:  Tue Apr 07 20:35:32 2015
# Frame Rate: 120.000 fps
#------------------------------------------------------
:FULLY-SPECIFIED
:DEGREES
463
root 1.946033 33.741986 -1.713703 24.228688 -42.831514 -39.613176
Spine 4.651361 24.031720 22.644432
Head 9.507992 6.922331 4.178832
LeftShoulder -26.740114 44.181643 7.915394
LeftArm 44.508684 -40.727759 -81.470352
LeftForeArm 2.229051 0.000000 13.307736
LeftHand 9.604473 0.000000 0.216147
LeftHandThumb1 -26.253704 0.000000 33.147579
RightShoulder 6.463429 8.486179 -18.774322
RightArm 25.049723 -10.236081 73.743033
RightForeArm -4.769003 -0.000000 15.248319
RightHand 5.951268 -0.000000 4.828953
RightHandThumb1 -24.326973 -0.000000 -32.862282
LeftUpLeg 0.532736 9.437882 20.742922
LeftLeg 11.959355 -0.000000 -0.000000
LeftFoot -17.033869 25.353099 -13.778352
LeftToeBase -5.936001 -0.000000 0.000000
RightUpLeg -71.442884 -49.380654 -15.075229
RightLeg 102.818587 -0.000000 -0.000000
RightFoot 39.550569 -6.030118 -6.420062
RightToeBase 30.788773 -0.000000 -0.000000
464
root 1.949056 33.738775 -1.704858 24.243334 -42.827125 -39.550837
Spine 4.609857 24.083586 22.621137
Head 9.376051 6.942381 4.106735
LeftShoulder -26.711654 44.182446 7.917164
LeftArm 44.411315 -40.778001 -81.514959
LeftForeArm 2.151997 0.000000 13.279746
LeftHand 9.666198 0.000000 -0.179163
LeftHandThumb1 -26.253704 0.000000 33.147579
RightShoulder 6.328636 8.334351 -18.802093
RightArm 25.093505 -10.492023 73.595670
RightForeArm -4.927484 -0.000000 15.104150
RightHand 5.854095 0.000000 4.365409
RightHandThumb1 -24.326973 -0.000000 -32.862282
LeftUpLeg 0.491091 9.426385 20.666820
LeftLeg 11.918769 -0.000000 -0.000000
LeftFoot -16.932115 25.427510 -13.583399
LeftToeBase -6.001035 -0.000000 0.000000
RightUpLeg -71.536626 -49.430031 -14.954931
RightLeg 103.712154 -0.000000 -0.000000
RightFoot 39.597984 -6.009136 -6.283357
RightToeBase 30.985446 -0.000000 -0.000000
465
root 1.952326 33.736399 -1.696330 24.272190 -42.828851 -39.526204
Spine 4.599725 24.111098 22.641726
Head 9.239581 6.977409 3.990341
LeftShoulder -26.736978 44.195841 7.852921
LeftArm 44.298493 -40.799498 -81.515330
LeftForeArm 2.087690 -0.000000 13.252336
LeftHand 9.536135 -0.000000 0.112264
LeftHandThumb1 -26.253704 0.000000 33.147579
RightShoulder 6.227260 8.279337 -18.854837
RightArm 25.084417 -10.895452 73.496696
RightForeArm -4.673423 -0.000000 14.883671
RightHand 6.151596 -0.000000 4.641703
RightHandThumb1 -24.326973 -0.000000 -32.862282
LeftUpLeg 0.454259 9.438661 20.620060
LeftLeg 11.899885 -0.000000 -0.000000
LeftFoot -16.913550 25.459335 -13.486916
LeftToeBase -5.943946 -0.000000 0.000000
RightUpLeg -71.629285 -49.478082 -14.814342
RightLeg 104.584547 -0.000000 -0.000000
RightFoot 39.556278 -5.919416 -6.176588
RightToeBase 31.244500 -0.000000 -0.000000
466
root 1.954238 33.734280 -1.690686 24.352666 -42.831310 -39.553635
Spine 4.576239 24.134223 22.680511
Head 9.102724 7.030865 3.901202
LeftShoulder -26.759215 44.204762 7.805590
LeftArm 44.146240 -40.852767 -81.531710
LeftForeArm 1.996732 -0.000000 13.252426
LeftHand 9.528966 -0.000000 0.183928
LeftHandThumb1 -26.253704 0.000000 33.147579
RightShoulder 6.181907 8.255098 -18.862871
RightArm 25.061366 -11.264397 73.389720
RightForeArm -4.550174 -0.000000 14.539835
RightHand 6.419572 -0.000000 5.063598
RightHandThumb1 -24.326973 -0.000000 -32.862282
LeftUpLeg 0.400561 9.447116 20.612051
LeftLeg 11.902218 -0.000000 -0.000000
LeftFoot -16.904798 25.504647 -13.400942
LeftToeBase -5.872312 -0.000000 0.000000
RightUpLeg -71.788008 -49.520155 -14.575428
RightLeg 105.466522 -0.000000 -0.000000
RightFoot 39.538694 -5.711097 -6.185039
RightToeBase 31.305015 -0.000000 -0.000000
467
root 1.956353 33.731288 -1.680493 24.333275 -42.843485 -39.533327
Spine 4.634431 24.094898 22.715335
Head 8.950487 7.102271 3.808657
LeftShoulder -26.866619 44.263328 7.674086
LeftArm 44.102263 -40.911558 -81.615378
LeftForeArm 1.944384 0.000000 13.231524
LeftHand 9.570468 -0.000000 0.180583
LeftHandThumb1 -26.253704 0.000000 33.147579
RightShoulder 6.191821 8.288613 -18.870117
RightArm 24.964186 -11.595425 73.342551
RightForeArm -4.703862 -0.000000 14.186580
RightHand 6.345336 -0.000000 5.042324
RightHandThumb1 -24.326973 -0.000000 -32.862282
LeftUpLeg 0.409819 9.423384 20.565562
LeftLeg 11.894031 -0.000000 -0.000000
LeftFoot -16.873854 25.614964 -13.279249
LeftToeBase -5.892390 -0.000000 0.000000
RightUpLeg -71.873686 -49.590991 -14.420293
RightLeg 106.327542 -0.000000 -0.000000
RightFoot 39.474121 -5.795731 -5.978135
RightToeBase 31.992884 -0.000000 -0.000000
468
root 1.955863 33.729985 -1.666139 24.267415 -42.798037 -39.550272
Spine 4.752930 23.979686 22.844803
Head 8.816735 7.177162 3.681508
LeftShoulder -26.933660 44.292615 7.563428
LeftArm 43.996252 -40.994204 -81.698446
LeftForeArm 1.873654 -0.000000 13.235508
LeftHand 9.518190 -0.000000 0.168413
LeftHandThumb1 -26.253704 0.000000 33.147579
RightShoulder 6.246703 8.298960 -18.890490
RightArm 24.857984 -11.922528 73.316581
RightForeArm -4.941073 -0.000000 13.806336
RightHand 6.157225 -0.000000 5.131886
RightHandThumb1 -24.326973 -0.000000 -32.862282
LeftUpLeg 0.480691 9.283157 20.571250
LeftLeg 11.885149 -0.000000 -0.000000
LeftFoot -16.912625 25.722949 -13.230513
LeftToeBase -5.914769 -0.000000 0.000000
RightUpLeg -71.803297 -49.705752 -14.344916
RightLeg 107.264877 -0.000000 -0.000000
RightFoot 39.382641 -5.605841 -5.853852
RightToeBase 32.314563 -0.000000 -0.000000
469
root 1.954722 33.728705 -1.658946 24.289378 -42.822069 -39.621598
Spine 4.853751 23.956954 22.945569
Head 8.671271 7.217200 3.611541
LeftShoulder -27.006754 44.326148 7.468588
LeftArm 43.852264 -41.015425 -81.703920
LeftForeArm 1.739177 0.000000 13.221947
LeftHand 9.613203 -0.000000 -0.042460
LeftHandThumb1 -26.253704 0.000000 33.147579
RightShoulder 6.318944 8.265883 -18.874800
RightArm 24.797017 -12.267196 73.261537
RightForeArm -5.217286 -0.000000 13.383419
RightHand 6.211484 -0.000000 5.518000
RightHandThumb1 -24.326973 -0.000000 -32.862282
LeftUpLeg 0.525975 9.251856 20.590820
LeftLeg 11.891771 -0.000000 -0.000000
LeftFoot -16.853154 25.876899 -13.079549
LeftToeBase -6.115260 -0.000000 0.000000
RightUpLeg -71.943171 -49.747207 -14.077342
RightLeg 108.243209 -0.000000 -0.000000
RightFoot 39.427849 -5.604455 -5.685729
RightToeBase 32.677026 -0.000000 -0.000000
470
root 1.950869 33.727769 -1.653681 24.302794 -42.866217 -39.704435
Spine 4.977466 23.953250 23.040578
Head 8.537853 7.250745 3.565350
LeftShoulder -27.044798 44.352147 7.409014
LeftArm 43.678962 -41.046521 -81.703712
LeftForeArm 1.752270 -0.000000 13.232919
LeftHand 9.516911 -0.000000 0.386748
LeftHandThumb1 -26.253704 0.000000 33.147579
RightShoulder 6.396518 8.206000 -18.876902
RightArm 24.733540 -12.691608 73.258367
RightForeArm -5.046357 -0.000000 13.022485
RightHand 5.181700 -0.000000 7.672554
RightHandThumb1 -24.326973 -0.000000 -32.862282
LeftUpLeg 0.595258 9.221654 20.622946
LeftLeg 11.907071 -0.000000 -0.000000
LeftFoot -16.922246 25.967283 -13.116477
LeftToeBase -5.871631 -0.000000 0.000000
RightUpLeg -72.091029 -49.770778 -13.813098
RightLeg 109.294207 -0.000000 -0.000000
RightFoot 39.537580 -5.487157 -5.427643
RightToeBase 33.055160 -0.000000 -0.000000
471
root 1.946261 33.727106 -1.648121 24.309624 -42.910253 -39.780658
Spine 5.104950 23.965261 23.120046
Head 8.393788 7.234498 3.555271
LeftShoulder -27.105394 44.418207 7.333718
LeftArm 43.592258 -41.051439 -81.742910
LeftForeArm 1.615905 -0.000000 13.239596
LeftHand 9.553828 -0.000000 0.220944
LeftHandThumb1 -26.253704 0.000000 33.147579
RightShoulder 6.485713 8.152057 -18.814818
RightArm 24.642787 -13.067999 73.232239
RightForeArm -5.410816 -0.000000 12.574205
RightHand 4.972395 -0.000000 8.118221
RightHandThumb1 -24.326973 -0.000000 -32.862282
LeftUpLeg 0.670471 9.171354 20.655345
LeftLeg 11.920241 -0.000000 -0.000000
LeftFoot -17.105624 26.014006 -13.340992
LeftToeBase -5.644969 -0.000000 0.000000
RightUpLeg -72.279361 -49.816075 -13.520995
RightLeg 110.383422 -0.000000 -0.000000
RightFoot 39.812224 -5.271730 -5.131009
RightToeBase 33.382860 -0.000000 -0.000000
472
root 1.940767 33.726237 -1.648626 24.363238 -42.989469 -39.863658
Spine 5.207847 24.033220 23.147591
Head 8.220695 7.240022 3.600326
LeftShoulder -27.158506 44.444778 7.286897
LeftArm 43.512274 -41.084945 -81.777700
LeftForeArm 1.722768 -0.000000 13.192619
LeftHand 9.670751 0.000000 0.165253
LeftHandThumb1 -26.253704 0.000000 33.147579
RightShoulder 6.582984 8.056419 -18.714523
RightArm 24.573176 -13.380761 73.237853
RightForeArm -5.892122 -0.000000 12.094333
RightHand 4.790179 -0.000000 8.418305
RightHandThumb1 -24.326973 -0.000000 -32.862282
LeftUpLeg 0.704652 9.186762 20.687807
LeftLeg 11.965293 -0.000000 -0.000000
LeftFoot -17.245968 26.004167 -13.520640
LeftToeBase -5.493116 -0.000000 0.000000
RightUpLeg -72.582211 -49.820064 -13.177210
RightLeg 111.527847 -0.000000 -0.000000
RightFoot 40.223295 -4.902785 -4.750550
RightToeBase 33.695957 -0.000000 -0.000000
473
root 1.935667 33.725890 -1.650456 24.428580 -43.083007 -39.941495
Spine 5.307467 24.116408 23.155590
Head 8.044080 7.232306 3.641880
LeftShoulder -27.251094 44.482605 7.205272
LeftArm 43.467878 -41.064510 -81.790644
LeftForeArm 1.797502 -0.000000 13.146522
LeftHand 9.591055 -0.000000 0.584734
LeftHandThumb1 -26.253704 0.000000 33.147579
RightShoulder 6.701913 7.976800 -18.604597
RightArm 24.481112 -13.774031 73.242374
RightForeArm -6.333394 -0.000000 11.567139
RightHand 4.591912 -0.000000 8.685817
RightHandThumb1 -24.326973 -0.000000 -32.862282
LeftUpLeg 0.733197 9.273183 20.725076
LeftLeg 12.006441 -0.000000 -0.000000
LeftFoot -17.370069 25.918783 -13.713348
LeftToeBase -5.512641 -0.000000 0.000000
RightUpLeg -72.925751 -49.821156 -12.823380
RightLeg 112.712398 -0.000000 -0.000000
RightFoot 40.632244 -4.376733 -4.340946
RightToeBase 33.853785 -0.000000 -0.000000
